<?xml version="1.0" standalone="no"?>
<!DOCTYPE svg PUBLIC "-//W3C//DTD SVG 20010904//EN"
 "http://www.w3.org/TR/2001/REC-SVG-20010904/DTD/svg10.dtd">
<svg version="1.0" xmlns="http://www.w3.org/2000/svg"
 width="892.000000pt" height="892.000000pt" viewBox="0 0 892.000000 892.000000"
 preserveAspectRatio="xMidYMid meet">
<metadata>
Created by potrace 1.14, written by Peter Selinger 2001-2017
</metadata>
<g transform="translate(0.000000,892.000000) scale(0.100000,-0.100000)"
fill="#000000" stroke="none">
<path d="M884 8911 c-2 -2 -4 -1615 -4 -3583 0 -2855 3 -3578 13 -3579 16 0
7084 0 7123 0 l32 1 -2 3117 -1 3116 -465 0 -465 0 0 459 c0 253 -2 463 -5
467 -5 7 -6219 9 -6226 2z"/>
<path d="M7447 8905 c-2 -5 -3 -140 -3 -300 l1 -290 300 0 300 0 0 300 0 300
-297 0 c-194 0 -299 -3 -301 -10z"/>
<path d="M2905 1360 c-86 -18 -137 -73 -138 -150 -1 -63 33 -110 105 -142 105
-47 113 -52 116 -79 2 -15 -4 -34 -13 -43 -21 -20 -95 -21 -150 -1 -22 8 -41
15 -41 15 -1 0 -7 -21 -13 -47 -11 -42 -10 -49 5 -60 45 -33 212 -28 270 8 60
37 87 119 60 183 -20 48 -45 68 -134 107 -78 34 -100 65 -70 96 18 17 90 19
132 3 16 -6 31 -9 33 -6 2 2 11 24 18 49 l14 46 -34 11 c-41 14 -119 18 -160
10z"/>
<path d="M6840 1356 c-132 -27 -210 -125 -210 -265 0 -80 24 -144 72 -191 57
-56 119 -74 228 -68 48 3 92 8 97 11 7 4 7 24 1 56 l-10 49 -36 -10 c-50 -14
-128 -5 -160 19 -91 66 -81 243 17 289 36 17 76 20 143 9 36 -6 37 -6 48 34 6
23 8 46 5 51 -13 21 -124 30 -195 16z"/>
<path d="M897 1352 c-16 -3 -17 -22 -15 -260 l3 -257 45 -1 c71 0 70 -3 70
108 l0 101 36 -6 c20 -3 41 -11 48 -16 7 -6 23 -49 35 -96 13 -47 26 -85 29
-86 27 -4 114 -4 117 1 2 3 -7 45 -20 94 -24 88 -47 136 -65 136 -18 0 -10 16
13 29 52 28 75 116 46 177 -19 38 -69 70 -122 78 -44 7 -188 6 -220 -2z m201
-96 c39 -13 42 -95 5 -111 -10 -4 -37 -11 -60 -15 l-43 -7 0 67 c0 37 3 69 6
73 7 7 60 3 92 -7z"/>
<path d="M1852 1096 l3 -261 160 0 160 0 3 52 3 51 -106 -1 -105 -2 0 60 0 60
95 -3 95 -3 0 49 c0 58 0 58 -112 57 l-78 -1 0 51 0 51 88 -1 c48 -1 93 0 100
3 7 2 12 23 12 52 l0 47 -160 0 -160 0 2 -261z"/>
<path d="M3696 1351 c-2 -3 -3 -121 -2 -261 l1 -255 165 0 165 0 3 51 3 52
-100 0 c-55 0 -104 2 -109 5 -8 6 -6 97 3 106 3 2 44 5 92 5 l88 1 2 46 c2 55
-1 56 -114 53 -79 -2 -75 -6 -75 61 0 14 0 28 1 33 1 4 40 7 89 7 48 -1 93 1
100 3 7 2 12 18 11 36 -3 66 5 63 -164 63 -86 0 -157 -2 -159 -6z"/>
<path d="M4760 1355 c0 -2 -34 -114 -75 -250 -41 -137 -75 -253 -75 -260 0
-13 104 -14 117 -1 5 4 15 33 24 64 l16 57 71 3 71 3 17 -58 c9 -32 20 -62 25
-67 10 -11 118 -16 124 -6 2 3 -18 76 -44 161 -27 85 -63 199 -80 255 l-31
100 -80 1 c-44 0 -80 -1 -80 -2z m100 -190 c12 -43 24 -85 27 -92 4 -10 -8
-13 -47 -13 -49 0 -52 1 -47 23 18 76 41 166 43 164 1 -1 12 -38 24 -82z"/>
<path d="M5683 1352 c-13 -2 -24 -9 -24 -15 -7 -65 -2 -497 6 -498 6 -1 34 -2
62 -3 l53 -1 0 104 0 104 36 -6 c20 -3 41 -11 48 -16 7 -6 23 -49 35 -96 13
-47 26 -85 29 -86 27 -5 114 -3 117 1 2 4 -2 29 -10 56 -8 27 -19 68 -25 91
-6 23 -21 55 -35 71 l-24 29 23 12 c57 31 75 130 33 192 -32 49 -97 69 -212
67 -49 -1 -100 -4 -112 -6z m207 -107 c20 -18 26 -60 12 -81 -11 -18 -44 -32
-82 -35 l-35 -4 -3 71 -3 71 46 -2 c27 -1 53 -9 65 -20z"/>
<path d="M7620 1096 l0 -262 58 1 57 0 3 108 3 107 93 0 93 0 -1 -101 c-1 -57
3 -104 9 -108 5 -4 33 -7 60 -6 l50 0 3 261 2 261 -62 -1 -63 -1 1 -97 c1 -89
-1 -98 -17 -99 -11 0 -48 -1 -84 -1 -36 0 -69 1 -75 1 -6 1 -10 41 -10 99 l0
98 -60 1 -60 1 0 -262z"/>
<path d="M1741 538 c-157 -28 -246 -225 -176 -392 58 -138 257 -184 382 -89
95 72 124 250 60 369 -46 87 -153 133 -266 112z m108 -110 c58 -36 80 -172 41
-254 -47 -97 -156 -90 -202 14 -24 53 -21 138 6 191 32 61 101 83 155 49z"/>
<path d="M6957 535 c-63 -16 -115 -59 -152 -126 -25 -47 -29 -65 -30 -134 0
-102 32 -175 97 -222 55 -39 77 -45 154 -44 152 2 247 110 245 277 -1 77 -19
129 -63 179 -59 67 -156 94 -251 70z m120 -107 c59 -29 84 -178 44 -257 -37
-71 -121 -87 -173 -31 -75 81 -57 248 32 292 35 18 55 17 97 -4z"/>
<path d="M882 276 l3 -261 55 0 55 1 3 101 3 102 92 3 92 3 0 45 0 45 -93 3
-92 3 0 54 0 55 78 1 c126 2 117 -2 118 51 1 36 -3 49 -15 52 -9 2 -80 4 -159
4 l-142 0 2 -262z"/>
<path d="M2387 526 c-9 -29 1 -339 13 -382 18 -65 74 -119 131 -130 152 -27
257 36 277 168 6 42 9 292 3 344 -1 7 -25 11 -61 12 l-60 0 0 -175 c0 -139 -3
-182 -16 -208 -19 -40 -61 -59 -102 -44 -52 18 -57 38 -60 241 l-4 186 -58 0
c-34 -1 -60 -5 -63 -12z"/>
<path d="M3162 276 l3 -261 50 0 50 0 3 180 2 180 49 -95 c26 -52 70 -133 97
-180 l49 -85 60 0 60 0 3 262 2 262 -55 -1 -56 -2 3 -163 c3 -150 -2 -191 -16
-145 -3 9 -36 71 -72 137 -36 66 -73 132 -80 146 -14 25 -19 27 -84 26 l-70
-1 2 -260z"/>
<path d="M3959 532 l-26 -7 -1 -253 0 -252 25 -6 c13 -4 72 -4 131 -2 125 6
194 30 242 85 45 51 62 99 63 183 1 118 -44 196 -138 236 -43 18 -246 29 -296
16z m208 -96 c66 -15 112 -104 97 -191 -14 -85 -59 -127 -146 -133 -51 -4 -58
-2 -59 14 -6 123 0 307 10 313 12 8 53 7 98 -3z"/>
<path d="M4860 411 c-82 -265 -118 -386 -114 -392 2 -3 29 -5 61 -4 l57 1 21
65 20 64 70 0 70 0 19 -60 c10 -33 22 -62 27 -65 4 -3 27 -5 51 -4 85 3 80 0
64 42 -8 20 -35 102 -59 182 -25 80 -56 179 -69 220 l-23 75 -78 1 -77 2 -40
-127z m164 -160 c5 -8 -10 -11 -48 -11 l-54 0 20 78 c11 42 22 84 25 92 3 8
15 -22 28 -66 12 -45 25 -87 29 -93z"/>
<path d="M5565 532 c-3 -3 -5 -27 -5 -53 l0 -47 68 1 67 1 5 -210 5 -209 58
-1 57 0 0 208 0 208 23 1 c12 0 43 1 70 1 l47 -1 0 53 0 53 -195 0 c-107 0
-197 -2 -200 -5z"/>
<path d="M6309 537 c-1 -1 -2 -116 -3 -255 -2 -281 -4 -270 64 -267 19 1 41 3
48 4 9 1 12 60 12 259 l0 258 -60 2 c-33 1 -61 1 -61 -1z"/>
<path d="M7622 276 l3 -261 50 0 50 0 0 178 c0 97 1 177 1 177 1 0 39 -69 84
-152 114 -211 108 -203 166 -202 27 1 55 2 62 3 9 1 12 60 12 260 l0 259 -54
0 c-66 0 -63 9 -59 -193 l3 -150 -20 45 c-12 25 -53 102 -92 171 l-71 126 -69
0 -68 1 2 -262z"/>
</g>
</svg>
